<svg width="97" height="81" viewBox="0 0 97 81" fill="none" xmlns="http://www.w3.org/2000/svg">
<g clip-path="url(#clip0_1898_231)">
<path d="M54.3141 38.5425H4.83838V51.9711H54.3141V38.5425Z" fill="#EDDF3E"/>
<path d="M3.47931 0V4.74558H0.0210191V2.02562C0.0210191 1.8133 0.00758142 1.60099 -9.72574e-05 1.38867C-0.0125751 1.02429 0.255219 0.0459064 3.47931 0Z" fill="white"/>
<path d="M6.50296 16.7222V21.1273H3.19537V18.6034C3.19537 18.4064 3.18289 18.2093 3.17521 18.0123C3.16273 17.6728 3.41901 16.7642 6.50296 16.7222Z" fill="white"/>
<path d="M3.19537 21.6919H6.50296V31.8037C3.41901 31.7607 3.16273 30.8531 3.17521 30.5136L3.19537 21.6919Z" fill="white"/>
<path d="M55.7578 21.707H52.4502V31.8189C55.5341 31.7758 55.7904 30.8682 55.7779 30.5287L55.7578 21.707Z" fill="white"/>
<path d="M52.4014 16.7222V21.1273H55.709V18.6034C55.709 18.4064 55.7214 18.2093 55.7291 18.0123C55.7416 17.6728 55.4863 16.7642 52.4014 16.7222Z" fill="white"/>
<path d="M3.47931 15.4216V5.479H0.0210191V13.395C0.0210191 13.6073 0.00758142 13.8196 -9.72574e-05 14.0319C-0.0125751 14.3973 0.255219 15.3757 3.47931 15.4216Z" fill="white"/>
<path d="M55.73 15.4216V5.479H59.1883V13.395C59.1883 13.6073 59.2017 13.8196 59.2094 14.0319C59.2219 14.3973 58.9541 15.3757 55.73 15.4216Z" fill="white"/>
<path d="M55.73 0V4.74558H59.1883V2.02562C59.1883 1.8133 59.2017 1.60099 59.2094 1.38867C59.2219 1.02429 58.9541 0.0459064 55.73 0Z" fill="white"/>
<path d="M54.9004 0H4.38623V4.74558H54.9004V0Z" fill="#B1B1B1"/>
<path d="M54.9004 5.42285H4.38623V15.3654H54.9004V5.42285Z" fill="#B5000F"/>
<path d="M11.416 7.00439H5.67139V10.4502H11.416V7.00439Z" fill="white"/>
<path d="M29.5851 13.2182C25.9445 13.2182 22.9824 10.4963 22.9824 7.1499H24.2206C24.2206 9.81535 26.6269 11.9844 29.5851 11.9844C32.5433 11.9844 34.9496 9.81535 34.9496 7.1499H36.1878C36.1878 10.4963 33.2258 13.2182 29.5851 13.2182Z" fill="white"/>
<path d="M51.6316 16.7222H7.6001V21.3903H51.6316V16.7222Z" fill="#B1B1B1"/>
<path d="M51.6316 21.6938H7.6001V31.6728H51.6316V21.6938Z" fill="#1B65A1"/>
<path d="M13.6085 18.4487H12.3232V21.3915H13.6085V18.4487Z" fill="white"/>
<path d="M13.6085 21.6938H12.3232V24.4377H13.6085V21.6938Z" fill="white"/>
<path d="M46.9073 18.4487H45.6221V24.4367H46.9073V18.4487Z" fill="white"/>
<path d="M24.2301 19.6576H22.5293V18.4487H25.476V21.3915H24.2301V19.6576Z" fill="white"/>
<path d="M33.7909 21.6938H35.0387V24.4368H24.23V21.6938H25.4758V23.312H33.7909V21.6938Z" fill="white"/>
<path d="M36.7406 18.4487V19.6576H35.0388V21.3915H33.791V18.4487H36.7406Z" fill="white"/>
<path d="M33.7921 21.6938H25.4771V23.312H33.7921V21.6938Z" fill="#555555"/>
<path d="M33.7921 22.2378H25.4771V22.7839H33.7921V22.2378Z" fill="black"/>
<path d="M4.00912 33.2163V37.5851H0.833984V34.8077C0.833984 34.0187 1.51259 33.3645 2.38604 33.3129L4.00912 33.2163Z" fill="white"/>
<path d="M4.00912 51.9707V38.5259H0.833984V50.3793C0.833984 51.1683 1.51259 51.8225 2.38604 51.8741L4.00912 51.9707Z" fill="white"/>
<path d="M55.0703 51.9707V38.5259H58.2454V50.3793C58.2454 51.1683 57.5668 51.8225 56.6934 51.8741L55.0703 51.9707Z" fill="white"/>
<path d="M55.0703 33.2163V37.5851H58.2454V34.8077C58.2454 34.0187 57.5668 33.3645 56.6934 33.3129L55.0703 33.2163Z" fill="white"/>
<path d="M54.3524 33.2163H4.83838V37.5851H54.3524V33.2163Z" fill="#3A3A3A"/>
<path d="M14.195 34.8823H9.99951V36.1534H14.195V34.8823Z" fill="white"/>
<path d="M47.8805 34.8823H43.6851V36.1534H47.8805V34.8823Z" fill="white"/>
<path d="M12.7771 37.0571H11.5015V37.5851H12.7771V37.0571Z" fill="white"/>
<path d="M12.7771 38.5425H11.5015V40.9832H12.7771V38.5425Z" fill="white"/>
<path d="M46.5193 37.085H45.2446V37.5851H46.5193V37.085Z" fill="white"/>
<path d="M46.5193 38.5425H45.2446V41.0119H46.5193V38.5425Z" fill="white"/>
<path d="M28.9754 36.4926C29.6173 36.4926 30.1377 35.9741 30.1377 35.3344C30.1377 34.6948 29.6173 34.1763 28.9754 34.1763C28.3334 34.1763 27.813 34.6948 27.813 35.3344C27.813 35.9741 28.3334 36.4926 28.9754 36.4926Z" fill="white"/>
<path d="M22.7929 41.708H21.6401V42.8566H22.7929V41.708Z" fill="white"/>
<path d="M36.248 41.708H35.0952V42.8566H36.248V41.708Z" fill="white"/>
<path d="M33.092 41.708V46.6018H24.4506V41.708H23.2979V47.7533H24.4506V47.7504H33.092V47.7533H34.2448V47.7504V46.6018V41.708H33.092Z" fill="white"/>
<path d="M96.9971 35.81C96.9654 35.1941 96.6957 34.6269 96.2359 34.2138L78.1545 17.9447C77.2264 17.1098 76.0285 16.6794 74.7778 16.733L61.4448 17.3068C61.0349 17.324 60.6577 17.5 60.3803 17.8013C60.1029 18.1025 59.9618 18.4937 59.9801 18.9011L60.2526 24.8622C59.79 25.0698 59.2966 25.1788 58.7937 25.1817C56.8193 25.1931 55.6243 23.8533 55.6128 23.8399L55.2212 24.1784L54.8286 24.5151C54.8891 24.5849 56.324 26.2146 58.7755 26.2146C58.7831 26.2146 58.7908 26.2146 58.7975 26.2146C59.313 26.2127 59.8188 26.1228 60.3026 25.9535L60.6059 32.5755C60.6635 33.8255 61.2038 34.9817 62.1272 35.8301L79.9293 52.1727C80.3612 52.5687 80.9141 52.7839 81.4976 52.7839C81.5341 52.7839 81.5706 52.7829 81.6071 52.781C82.23 52.7523 82.803 52.4826 83.2215 52.0216L96.4029 37.4769C96.8176 37.0179 97.0287 36.4259 96.9971 35.81ZM95.3039 36.4871L82.1225 51.0327C81.9718 51.1991 81.7645 51.2967 81.5389 51.3072C81.3134 51.3177 81.0984 51.2393 80.9333 51.0872L63.1312 34.7436C62.4958 34.1602 62.1253 33.3664 62.085 32.5066L61.7481 25.1492C61.9266 25.0076 62.0974 24.8527 62.2606 24.6844C62.7453 24.1832 63.4201 23.7538 64.306 23.749C64.2072 24.0751 64.1534 24.4213 64.1534 24.78C64.1534 26.7463 65.7592 28.3463 67.7326 28.3463C69.7061 28.3463 71.3119 26.7463 71.3119 24.78C71.3119 22.8137 69.7061 21.2136 67.7326 21.2136C66.5156 21.2136 65.4396 21.8219 64.7927 22.7496C63.3203 22.5727 62.2654 23.2651 61.6876 23.8007L61.4601 18.8332C61.4601 18.8275 61.4592 18.8122 61.4736 18.7959C61.488 18.7806 61.5043 18.7796 61.51 18.7796L74.8431 18.2058C74.8911 18.2039 74.9391 18.2029 74.9861 18.2029C75.7933 18.2029 76.5622 18.4965 77.164 19.0388L95.2454 35.3079C95.4114 35.4571 95.5093 35.6617 95.5199 35.8846C95.5304 36.1084 95.4536 36.3216 95.3039 36.4871ZM65.8965 23.0317C66.4397 22.4655 67.2402 22.148 68.1108 22.2743C69.2146 22.434 70.0986 23.3205 70.2512 24.4213C70.4787 26.0587 69.1244 27.4531 67.4946 27.3039C66.3812 27.2025 65.455 26.3571 65.2371 25.2639C65.142 24.7867 65.1939 24.3334 65.3407 23.9259C65.859 24.099 66.4321 24.4089 67.1481 24.9856C67.366 25.1606 67.6847 25.1319 67.867 24.9206C68.0571 24.6997 68.0263 24.3649 67.7989 24.1813C67.0646 23.5893 66.458 23.2479 65.8965 23.0317Z" fill="white"/>
<path d="M73.4655 39.6919C73.2102 39.6919 72.9549 39.6011 72.7505 39.4165C72.3157 39.0234 72.2821 38.352 72.6775 37.9188L81.7595 27.9466C82.154 27.5133 82.8278 27.4808 83.2626 27.8739C83.6974 28.267 83.731 28.9384 83.3355 29.3716L74.2536 39.3438C74.0443 39.5753 73.7554 39.6919 73.4655 39.6919Z" fill="white"/>
<path d="M78.4655 44.4966C78.2102 44.4966 77.9549 44.4058 77.7505 44.2212C77.3157 43.8281 77.2821 43.1567 77.6775 42.7235L86.7595 32.7513C87.154 32.318 87.8278 32.2855 88.2626 32.6786C88.6974 33.0717 88.731 33.743 88.3355 34.1763L79.2536 44.1485C79.0443 44.3799 78.7554 44.4966 78.4655 44.4966Z" fill="white"/>
<path d="M24.2579 79.3072H10.9565V77.0473L11.8809 76.9631C12.4222 76.9077 12.6929 76.6475 12.6929 76.1818V63.2075L11.0967 63.1233V60.7515H17.8453V63.0114L16.921 63.0956C16.3796 63.151 16.1089 63.4494 16.1089 63.9888V76.4333H20.7574C21.0185 76.4333 21.1913 76.3635 21.2757 76.2239C21.3602 76.0842 21.4015 75.8566 21.4015 75.54V73.5871L24.2579 73.7822V79.3072Z" fill="white"/>
<path d="M30.2799 63.8349V73.0985C30.2799 74.4011 30.5918 75.3163 31.2176 75.8471C31.8425 76.3769 32.739 76.6428 33.9061 76.6428C35.0723 76.6428 35.9784 76.3549 36.6224 75.7782C37.2665 75.2015 37.589 74.3551 37.589 73.239V63.0258L35.965 62.9417V60.5698H42.6022V62.8298L41.6779 62.9139C41.1366 62.9694 40.8659 63.2487 40.8659 63.7508V73.7125C40.8659 75.5171 40.2314 76.9307 38.9616 77.954C37.6917 78.9774 35.9371 79.489 33.6969 79.489C31.4566 79.489 29.7625 78.9917 28.6145 77.9961C27.4666 77.0015 26.8926 75.4244 26.8926 73.2668V63.0258L25.2686 62.9417V60.5698H32.045V62.8298L31.1207 62.9139C30.8222 62.9512 30.6072 63.0306 30.4766 63.1511C30.3451 63.2726 30.2799 63.5002 30.2799 63.8349Z" fill="white"/>
<path d="M59.3878 72.8055V77.8562C57.6515 79.0469 55.4957 79.6417 52.9195 79.6417C50.3433 79.6417 48.3315 78.8374 46.885 77.2278C45.4376 75.6192 44.7148 73.233 44.7148 70.0702C44.7148 68.6749 44.8972 67.4192 45.261 66.3031C45.6248 65.187 46.1008 64.266 46.6892 63.541C47.2776 62.8151 47.9639 62.2116 48.7471 61.7277C50.2406 60.8536 51.9347 60.4165 53.8294 60.4165C55.7242 60.4165 57.4931 60.7981 59.1364 61.5603V66.304L56.2799 66.4991V64.3224C56.2799 64.0431 56.2425 63.8385 56.1676 63.7084C55.9622 63.3555 55.1127 63.1785 53.6192 63.1785C50.016 63.1785 48.2144 65.4021 48.2144 69.8474C48.2144 74.5356 49.8384 76.8787 53.0875 76.8787C54.3756 76.8787 55.3652 76.6559 56.0563 76.2093V72.0519H56.0284L53.8717 71.9677V69.5959H60.8449V71.8281L60.2008 71.8836C59.9023 71.9209 59.6921 72.0002 59.5712 72.1207C59.4483 72.2432 59.3878 72.4708 59.3878 72.8055Z" fill="white"/>
<path d="M87.7454 58.1011C84.1921 58.3335 81.0496 62.2393 80.1185 63.5085C79.9381 63.7552 79.6434 63.892 79.3372 63.8738L75.5238 63.651C75.71 63.2378 75.7532 62.948 75.7206 62.7443C75.6543 62.335 75.1024 62.2336 74.8644 62.5731L74.0879 63.6797L72.8007 63.5926L72.4802 62.6257C72.4053 62.4 72.1173 62.3321 71.9494 62.5004L71.3168 63.1326L67.5754 63.2082C65.9533 63.3535 66.0061 64.1062 66.0061 64.1062C75.5046 66.4379 75.878 68.0876 75.878 68.0876C73.1309 70.5541 69.8608 75.2156 69.8608 75.2156L65.1777 75.4231C65.1777 75.4231 68.2195 76.7142 68.8069 77.4181L68.805 77.42C69.5229 77.9853 70.884 80.9979 70.884 80.9979L70.9972 76.3278C70.9972 76.3278 75.6083 72.9757 78.027 70.1888C78.027 70.1888 79.6904 70.5274 82.2225 79.943C82.2225 79.943 82.9788 79.9803 83.0921 78.3611V74.6331L83.6939 74.0105C83.8686 73.8298 83.7909 73.5295 83.5499 73.4558L82.6007 73.1651L82.4874 71.8845L83.4434 71.1892C83.8955 70.8611 83.5816 70.1448 83.0345 70.2596C82.8809 70.2911 82.7005 70.3533 82.4874 70.4537L82.187 66.6598C82.163 66.3556 82.2945 66.0591 82.5373 65.8746C83.7918 64.921 87.6465 61.7114 87.8087 58.1671V58.1011H87.7454Z" fill="white"/>
</g>
<defs>
<clipPath id="clip0_1898_231">
<rect width="97" height="81" fill="white"/>
</clipPath>
</defs>
</svg>
